<svg height="480pt" viewBox="0 -19 480 479" width="480pt" xmlns="http://www.w3.org/2000/svg"><path d="m240 352.5v-32c0-13.253906-10.746094-24-24-24h-176c-13.253906 0-24 10.746094-24 24v32c.007812 3.0625.605469 6.09375 1.761719 8.929688-10.445313 2.808593-17.714844 12.257812-17.761719 23.070312v32c0 13.253906 10.746094 24 24 24h176c13.253906 0 24-10.746094 24-24v-32c-.007812-3.0625-.605469-6.09375-1.761719-8.929688 10.445313-2.808593 17.714844-12.257812 17.761719-23.070312zm-32 64c0 4.417969-3.582031 8-8 8h-176c-4.417969 0-8-3.582031-8-8v-32c0-4.417969 3.582031-8 8-8h8v16h16v-16h32v16h16v-16h32v16h16v-16h32v16h16v-16h8c4.417969 0 8 3.582031 8 8zm16-64c0 4.417969-3.582031 8-8 8h-176c-4.417969 0-8-3.582031-8-8v-32c0-4.417969 3.582031-8 8-8h8v16h16v-16h32v16h16v-16h32v16h16v-16h32v16h16v-16h8c4.417969 0 8 3.582031 8 8zm0 0"/><path d="m480 224.5v-32c0-13.253906-10.746094-24-24-24h-176c-13.253906 0-24 10.746094-24 24v32c.023438 4.132812 1.125 8.191406 3.199219 11.769531-6.957031 4.375-11.183594 12.011719-11.199219 20.230469v32c.015625 8.21875 4.242188 15.855469 11.199219 20.230469-2.074219 3.578125-3.175781 7.636719-3.199219 11.769531v32c.007812 3.0625.605469 6.09375 1.761719 8.929688-10.445313 2.808593-17.714844 12.257812-17.761719 23.070312v32c0 13.253906 10.746094 24 24 24h176c13.253906 0 24-10.746094 24-24v-32c-.007812-3.0625-.605469-6.09375-1.761719-8.929688 10.445313-2.808593 17.714844-12.257812 17.761719-23.070312v-32c-.015625-8.21875-4.242188-15.855469-11.199219-20.230469 2.074219-3.578125 3.175781-7.636719 3.199219-11.769531v-32c-.023438-4.132812-1.125-8.191406-3.199219-11.769531 6.957031-4.375 11.183594-12.011719 11.199219-20.230469zm-208-32c0-4.417969 3.582031-8 8-8h8v16h16v-16h32v16h16v-16h32v16h16v-16h32v16h16v-16h8c4.417969 0 8 3.582031 8 8v32c0 4.417969-3.582031 8-8 8h-176c-4.417969 0-8-3.582031-8-8zm184 64v32c0 4.417969-3.582031 8-8 8h-176c-4.417969 0-8-3.582031-8-8v-32c0-4.417969 3.582031-8 8-8h8v16h16v-16h32v16h16v-16h32v16h16v-16h32v16h16v-16h8c4.417969 0 8 3.582031 8 8zm-8 160c0 4.417969-3.582031 8-8 8h-176c-4.417969 0-8-3.582031-8-8v-32c0-4.417969 3.582031-8 8-8h8v16h16v-16h32v16h16v-16h32v16h16v-16h32v16h16v-16h8c4.417969 0 8 3.582031 8 8zm16-64c0 4.417969-3.582031 8-8 8h-176c-4.417969 0-8-3.582031-8-8v-32c0-4.417969 3.582031-8 8-8h8v16h16v-16h32v16h16v-16h32v16h16v-16h32v16h16v-16h8c4.417969 0 8 3.582031 8 8zm0 0"/><path d="m104 160.5c-4.417969 0-8-3.582031-8-8h-16c.042969 10.132812 6.445312 19.148438 16 22.527344v9.472656h16v-9.472656c9.554688-3.378906 15.957031-12.394532 16-22.527344 0-12.945312-11.808594-18.847656-20.425781-23.160156-6.773438-3.382813-11.574219-6.007813-11.574219-8.839844 0-4.417969 3.582031-8 8-8s8 3.582031 8 8h16c-.042969-10.132812-6.445312-19.148438-16-22.527344v-9.472656h-16v9.472656c-9.554688 3.378906-15.957031 12.394532-16 22.527344 0 12.945312 11.808594 18.847656 20.425781 23.160156 6.773438 3.382813 11.574219 6.007813 11.574219 8.839844 0 4.417969-3.582031 8-8 8zm0 0"/><path d="m104 208.5c39.765625 0 72-32.234375 72-72s-32.234375-72-72-72-72 32.234375-72 72c.046875 39.746094 32.253906 71.953125 72 72zm0-128c30.929688 0 56 25.070312 56 56s-25.070312 56-56 56-56-25.070312-56-56c.035156-30.914062 25.085938-55.964844 56-56zm0 0"/><path d="m154.34375 234.84375 11.3125 11.3125 218.34375-218.34375v28.6875h16v-48c0-4.417969-3.582031-8-8-8h-48v16h28.6875zm0 0"/></svg>