<?xml version="1.0" encoding="iso-8859-1"?>
<!-- Generator: Adobe Illustrator 19.0.0, SVG Export Plug-In . SVG Version: 6.00 Build 0)  -->
<svg version="1.1" id="Capa_1" xmlns="http://www.w3.org/2000/svg" xmlns:xlink="http://www.w3.org/1999/xlink" x="0px" y="0px"
	 viewBox="0 0 512 512" style="enable-background:new 0 0 512 512;" xml:space="preserve">
<g>
	<g>
		<path d="M255.479,64.463h-72.564c-5.523,0-10,4.478-10,10c0,5.522,4.477,10,10,10h72.564c5.522,0,10-4.478,10-10
			C265.479,68.941,261.002,64.463,255.479,64.463z"/>
	</g>
</g>
<g>
	<g>
		<path d="M104.89,67.391c-0.47-0.46-0.98-0.88-1.52-1.24c-0.55-0.359-1.13-0.67-1.73-0.92c-0.61-0.25-1.23-0.439-1.87-0.569
			c-1.29-0.261-2.62-0.261-3.91,0c-0.64,0.13-1.27,0.319-1.87,0.569c-0.6,0.25-1.18,0.561-1.73,0.92c-0.54,0.36-1.06,0.78-1.52,1.24
			c-1.86,1.86-2.93,4.44-2.93,7.07c0,0.649,0.07,1.31,0.2,1.96c0.13,0.64,0.32,1.26,0.57,1.87c0.25,0.6,0.56,1.18,0.92,1.72
			c0.36,0.549,0.78,1.059,1.24,1.52c0.46,0.46,0.98,0.88,1.52,1.25c0.55,0.359,1.13,0.67,1.73,0.92c0.6,0.25,1.23,0.439,1.87,0.569
			c0.64,0.129,1.3,0.19,1.95,0.19s1.31-0.061,1.96-0.19c0.64-0.13,1.26-0.319,1.87-0.569c0.6-0.25,1.18-0.561,1.73-0.92
			c0.54-0.37,1.05-0.79,1.52-1.25c0.46-0.461,0.87-0.97,1.24-1.52c0.36-0.54,0.67-1.12,0.92-1.72c0.25-0.61,0.44-1.23,0.57-1.87
			c0.13-0.65,0.19-1.311,0.19-1.96C107.81,71.831,106.75,69.251,104.89,67.391z"/>
	</g>
</g>
<g>
	<g>
		<path d="M144.52,72.511c-0.12-0.64-0.32-1.269-0.57-1.87c-0.25-0.609-0.56-1.189-0.92-1.729c-0.36-0.551-0.78-1.061-1.24-1.521
			c-0.46-0.46-0.97-0.88-1.52-1.24c-0.54-0.359-1.12-0.67-1.73-0.92c-0.6-0.25-1.23-0.439-1.87-0.569c-1.29-0.261-2.61-0.261-3.9,0
			c-0.64,0.13-1.27,0.319-1.87,0.569c-0.61,0.25-1.19,0.561-1.73,0.92c-0.55,0.36-1.06,0.78-1.52,1.24s-0.88,0.97-1.24,1.521
			c-0.37,0.54-0.67,1.12-0.92,1.729c-0.25,0.6-0.45,1.23-0.57,1.87c-0.13,0.639-0.2,1.3-0.2,1.95c0,0.649,0.07,1.31,0.2,1.96
			c0.12,0.64,0.32,1.26,0.57,1.87c0.25,0.6,0.55,1.18,0.92,1.72c0.36,0.549,0.78,1.059,1.24,1.52c0.46,0.46,0.97,0.88,1.52,1.25
			c0.54,0.359,1.12,0.67,1.73,0.92c0.6,0.25,1.23,0.439,1.87,0.569c0.64,0.129,1.3,0.19,1.95,0.19c0.65,0,1.31-0.061,1.95-0.19
			c0.64-0.13,1.27-0.319,1.87-0.569c0.61-0.25,1.19-0.561,1.73-0.92c0.55-0.37,1.06-0.79,1.52-1.25c0.46-0.461,0.88-0.97,1.24-1.52
			c0.36-0.54,0.67-1.12,0.92-1.72c0.25-0.61,0.45-1.23,0.57-1.87c0.13-0.65,0.2-1.311,0.2-1.96
			C144.72,73.811,144.65,73.151,144.52,72.511z"/>
	</g>
</g>
<g>
	<g>
		<path d="M67.98,67.391c-0.46-0.46-0.97-0.88-1.52-1.24c-0.54-0.359-1.12-0.67-1.73-0.92c-0.6-0.25-1.23-0.439-1.87-0.569
			c-1.29-0.261-2.62-0.261-3.91,0c-0.63,0.13-1.26,0.319-1.87,0.569c-0.6,0.25-1.18,0.561-1.72,0.92c-0.55,0.36-1.06,0.78-1.52,1.24
			c-1.86,1.86-2.93,4.44-2.93,7.07c0,0.649,0.06,1.31,0.19,1.96c0.13,0.64,0.32,1.26,0.57,1.87c0.25,0.6,0.56,1.18,0.92,1.72
			c0.37,0.549,0.79,1.059,1.25,1.52c0.46,0.46,0.97,0.88,1.52,1.25c0.54,0.359,1.12,0.67,1.72,0.92c0.61,0.25,1.24,0.439,1.87,0.569
			c0.65,0.129,1.31,0.19,1.96,0.19c0.65,0,1.31-0.061,1.95-0.19c0.64-0.13,1.27-0.319,1.87-0.569c0.61-0.25,1.19-0.561,1.73-0.92
			c0.55-0.37,1.06-0.79,1.52-1.25c1.86-1.86,2.93-4.44,2.93-7.07S69.84,69.251,67.98,67.391z"/>
	</g>
</g>
<g>
	<g>
		<path d="M172.953,272.467c0-2.914,2.726-5.64,9.399-5.64c7.708,0,9.493,3.571,12.878,3.571c4.135,0,5.827-5.17,5.827-7.707
			c0-7.332-13.724-8.271-18.705-8.271c-11.75,0-24.063,5.357-24.063,19.456c0,21.996,29.796,20.022,29.796,31.395
			c0,4.511-4.793,6.203-9.115,6.202c-8.742,0-11.561-6.955-15.979-6.955c-3.573,0-6.392,4.7-6.392,7.896
			c0,6.203,10.339,12.219,22.652,12.219c13.629,0,23.499-7.331,23.499-20.866C202.75,280.08,172.953,281.866,172.953,272.467z"/>
	</g>
</g>
<g>
	<g>
		<path d="M259.711,316.644l-17.577-57.336c-1.034-3.29-5.264-4.888-9.588-4.888c-4.323,0-8.553,1.598-9.587,4.888l-17.483,57.336
			c-0.094,0.376-0.188,0.752-0.188,1.034c0,3.477,5.357,6.015,9.401,6.016c2.35,0,4.23-0.752,4.794-2.726l3.195-11.75h19.833
			l3.196,11.75c0.563,1.974,2.443,2.726,4.793,2.726c4.042,0,9.399-2.538,9.399-6.016
			C259.899,317.396,259.805,317.02,259.711,316.644z M225.685,297.939l6.861-25.191l6.862,25.191H225.685z"/>
	</g>
</g>
<g>
	<g>
		<path d="M301.447,310.91h-21.43v-51.509c0-3.102-3.666-4.418-7.332-4.418s-7.332,1.316-7.332,4.418v59.78
			c0,3.008,3.196,4.512,6.392,4.512v0.001h29.702c2.82,0,4.23-3.197,4.23-6.392C305.677,314.105,304.267,310.91,301.447,310.91z"/>
	</g>
</g>
<g>
	<g>
		<path d="M351.453,310.909h-25.191V294.93h14.1c3.102,0,4.418-3.008,4.418-5.545c0-3.007-1.598-5.734-4.418-5.734h-14.1v-15.887
			h25.191c2.819,0,4.417-3.008,4.417-6.485c0-3.008-1.315-6.298-4.417-6.298H317.99c-3.196,0-6.391,1.504-6.391,4.512v59.687
			c0,3.008,3.196,4.512,6.391,4.512h33.463c3.102,0,4.417-3.29,4.417-6.298C355.87,313.917,354.272,310.909,351.453,310.909z"/>
	</g>
</g>
<g>
	<g>
		<path d="M495.908,26.538H16.092C7.219,26.538,0,33.757,0,42.63v426.74c0,8.873,7.219,16.092,16.092,16.092h479.816
			c8.873,0,16.092-7.219,16.092-16.092V42.63C512,33.757,504.781,26.538,495.908,26.538z M492,465.462H20V122.153h205.669
			c-1.717,3.991-2.669,8.386-2.669,13c0,7.058,2.228,13.605,6.016,18.977l-58.96,61.883H94.288c-5.523,0-10,4.478-10,10v174.415
			c0,5.522,4.477,10,10,10h323.425c5.523,0,10-4.478,10-10V226.013c0-5.522-4.477-10-10-10h-75.769l-58.96-61.883
			c3.789-5.371,6.016-11.919,6.016-18.977c0-4.614-0.952-9.009-2.669-13H492V465.462z M245.057,166.289
			c3.426,1.207,7.109,1.865,10.943,1.865c3.834,0,7.517-0.657,10.943-1.865l47.376,49.724H197.681L245.057,166.289z M243,135.153
			c0-7.168,5.831-13,13-13c7.168,0,13,5.832,13,13c0,7.168-5.832,13-13,13C248.831,148.153,243,142.321,243,135.153z
			 M407.712,352.296H104.288V236.013h303.425L407.712,352.296L407.712,352.296z M407.713,372.296v18.132H104.288v-18.132H407.713z
			 M492,102.153H20V46.538h472V102.153z"/>
	</g>
</g>
<g>
	<g>
		<path d="M454.38,436.561c-0.13-0.64-0.32-1.27-0.57-1.87c-0.25-0.61-0.561-1.19-0.921-1.73c-0.36-0.549-0.78-1.06-1.24-1.52
			c-2.33-2.32-5.78-3.39-9.03-2.73c-0.64,0.12-1.27,0.32-1.87,0.57c-0.6,0.25-1.18,0.56-1.73,0.92
			c-0.54,0.359-1.05,0.779-1.52,1.239c-0.46,0.459-0.88,0.97-1.24,1.52c-0.36,0.54-0.67,1.121-0.92,1.73
			c-0.25,0.6-0.44,1.23-0.57,1.87c-0.131,0.64-0.19,1.3-0.19,1.95c0,0.65,0.06,1.31,0.19,1.96c0.13,0.63,0.32,1.26,0.57,1.87
			c0.25,0.6,0.56,1.18,0.92,1.72c0.37,0.55,0.78,1.061,1.25,1.521c0.46,0.46,0.97,0.88,1.52,1.25c0.54,0.36,1.12,0.67,1.72,0.92
			c0.6,0.25,1.23,0.439,1.87,0.569c0.651,0.13,1.301,0.19,1.961,0.19c0.65,0,1.31-0.06,1.949-0.189
			c0.64-0.129,1.27-0.319,1.87-0.569c0.6-0.25,1.19-0.561,1.73-0.92c0.55-0.37,1.06-0.79,1.52-1.25
			c0.46-0.461,0.88-0.971,1.24-1.521c0.361-0.54,0.671-1.12,0.921-1.72c0.25-0.61,0.44-1.24,0.57-1.87c0.13-0.65,0.2-1.31,0.2-1.96
			S454.51,437.202,454.38,436.561z"/>
	</g>
</g>
<g>
	<g>
		<path d="M403.058,428.512H67.424c-5.523,0-10,4.478-10,10c0,5.523,4.477,10,10,10h335.634c5.523,0,10-4.478,10-10
			C413.058,432.99,408.581,428.512,403.058,428.512z"/>
	</g>
</g>
<g>
</g>
<g>
</g>
<g>
</g>
<g>
</g>
<g>
</g>
<g>
</g>
<g>
</g>
<g>
</g>
<g>
</g>
<g>
</g>
<g>
</g>
<g>
</g>
<g>
</g>
<g>
</g>
<g>
</g>
</svg>
